<svg width="32" height="32" viewBox="0 0 32 32" fill="none" xmlns="http://www.w3.org/2000/svg">
<path fill-rule="evenodd" clip-rule="evenodd" d="M12.8889 32H17.8889C22.2939 32 25.2039 32 27.5439 29.655C29.8889 27.31 29.8889 24.4 29.8889 20V12.315C29.8889 10.43 29.8889 9.065 29.2789 7.595C28.6689 6.125 27.7089 5.16 26.3739 3.83L26.0589 3.515C24.7239 2.18 23.7639 1.22 22.2939 0.61C20.8239 0 19.4589 0 17.5739 0H12.8889C8.48392 0 5.57392 0 3.23392 2.345C0.893916 4.69 0.888916 7.6 0.888916 12V20C0.888916 24.405 0.888916 27.315 3.23392 29.655C5.57892 32 8.48892 32 12.8889 32ZM4.88892 12C4.88892 8.23 4.88892 6.345 6.05892 5.17C7.22397 3.99997 9.09797 3.99998 12.8411 4H12.8889H17.5739C19.2089 4 20.0239 4 20.7639 4.305C21.4989 4.61 22.0789 5.19 23.2339 6.345L23.5489 6.66C24.7039 7.81495 25.2839 8.395 25.5889 9.13C25.8939 9.865 25.8939 10.685 25.8939 12.32V20.005C25.8939 23.775 25.8939 25.66 24.7239 26.835C23.5539 28.005 21.6689 28.005 17.8939 28.005H12.8939C9.12392 28.005 7.23892 28.005 6.06392 26.835C4.89392 25.665 4.89392 23.78 4.89392 20.005V12.005L4.88892 12ZM10.8889 22H19.8889C20.9939 22 21.8889 21.105 21.8889 20C21.8889 18.895 20.9939 18 19.8889 18H10.8889C9.78392 18 8.88892 18.895 8.88892 20C8.88892 21.105 9.78392 22 10.8889 22ZM19.8889 14H10.8889C9.78392 14 8.88892 13.105 8.88892 12C8.88892 10.895 9.78392 10 10.8889 10H19.8889C20.9939 10 21.8889 10.895 21.8889 12C21.8889 13.105 20.9939 14 19.8889 14Z" fill="#F8FAFC"/>
</svg>
